<svg width="1280" height="720" xmlns="http://www.w3.org/2000/svg" xmlns:xlink="http://www.w3.org/1999/xlink" overflow="hidden"><defs><filter id="fx0" x="-10%" y="-10%" width="120%" height="120%" filterUnits="userSpaceOnUse" primitiveUnits="userSpaceOnUse"><feComponentTransfer color-interpolation-filters="sRGB"><feFuncR type="discrete" tableValues="0 0"/><feFuncG type="discrete" tableValues="0 0"/><feFuncB type="discrete" tableValues="0 0"/><feFuncA type="linear" slope="0.631373" intercept="0"/></feComponentTransfer><feGaussianBlur stdDeviation="2 2"/></filter><filter id="fx1" x="-10%" y="-10%" width="120%" height="120%" filterUnits="userSpaceOnUse" primitiveUnits="userSpaceOnUse"><feComponentTransfer color-interpolation-filters="sRGB"><feFuncR type="discrete" tableValues="0 0"/><feFuncG type="discrete" tableValues="0 0"/><feFuncB type="discrete" tableValues="0 0"/><feFuncA type="linear" slope="0.631373" intercept="0"/></feComponentTransfer><feGaussianBlur stdDeviation="2 2"/></filter><filter id="fx2" x="-10%" y="-10%" width="120%" height="120%" filterUnits="userSpaceOnUse" primitiveUnits="userSpaceOnUse"><feComponentTransfer color-interpolation-filters="sRGB"><feFuncR type="discrete" tableValues="0 0"/><feFuncG type="discrete" tableValues="0 0"/><feFuncB type="discrete" tableValues="0 0"/><feFuncA type="linear" slope="0.631373" intercept="0"/></feComponentTransfer><feGaussianBlur stdDeviation="2 2"/></filter><filter id="fx3" x="-10%" y="-10%" width="120%" height="120%" filterUnits="userSpaceOnUse" primitiveUnits="userSpaceOnUse"><feComponentTransfer color-interpolation-filters="sRGB"><feFuncR type="discrete" tableValues="0 0"/><feFuncG type="discrete" tableValues="0 0"/><feFuncB type="discrete" tableValues="0 0"/><feFuncA type="linear" slope="0.631373" intercept="0"/></feComponentTransfer><feGaussianBlur stdDeviation="2 2"/></filter><filter id="fx4" x="-10%" y="-10%" width="120%" height="120%" filterUnits="userSpaceOnUse" primitiveUnits="userSpaceOnUse"><feComponentTransfer color-interpolation-filters="sRGB"><feFuncR type="discrete" tableValues="0 0"/><feFuncG type="discrete" tableValues="0 0"/><feFuncB type="discrete" tableValues="0 0"/><feFuncA type="linear" slope="0.631373" intercept="0"/></feComponentTransfer><feGaussianBlur stdDeviation="2 2"/></filter><filter id="fx5" x="-10%" y="-10%" width="120%" height="120%" filterUnits="userSpaceOnUse" primitiveUnits="userSpaceOnUse"><feComponentTransfer color-interpolation-filters="sRGB"><feFuncR type="discrete" tableValues="0 0"/><feFuncG type="discrete" tableValues="0 0"/><feFuncB type="discrete" tableValues="0 0"/><feFuncA type="linear" slope="0.631373" intercept="0"/></feComponentTransfer><feGaussianBlur stdDeviation="2 2"/></filter><filter id="fx6" x="-10%" y="-10%" width="120%" height="120%" filterUnits="userSpaceOnUse" primitiveUnits="userSpaceOnUse"><feComponentTransfer color-interpolation-filters="sRGB"><feFuncR type="discrete" tableValues="0 0"/><feFuncG type="discrete" tableValues="0 0"/><feFuncB type="discrete" tableValues="0 0"/><feFuncA type="linear" slope="0.631373" intercept="0"/></feComponentTransfer><feGaussianBlur stdDeviation="2 2"/></filter><filter id="fx7" x="-10%" y="-10%" width="120%" height="120%" filterUnits="userSpaceOnUse" primitiveUnits="userSpaceOnUse"><feComponentTransfer color-interpolation-filters="sRGB"><feFuncR type="discrete" tableValues="0 0"/><feFuncG type="discrete" tableValues="0 0"/><feFuncB type="discrete" tableValues="0 0"/><feFuncA type="linear" slope="0.631373" intercept="0"/></feComponentTransfer><feGaussianBlur stdDeviation="2 2"/></filter><filter id="fx8" x="-10%" y="-10%" width="120%" height="120%" filterUnits="userSpaceOnUse" primitiveUnits="userSpaceOnUse"><feComponentTransfer color-interpolation-filters="sRGB"><feFuncR type="discrete" tableValues="0 0"/><feFuncG type="discrete" tableValues="0 0"/><feFuncB type="discrete" tableValues="0 0"/><feFuncA type="linear" slope="0.631373" intercept="0"/></feComponentTransfer><feGaussianBlur stdDeviation="2 2"/></filter><linearGradient x1="564" y1="329" x2="564" y2="382" gradientUnits="userSpaceOnUse" spreadMethod="reflect" id="fill9"><stop offset="0" stop-color="#4A7E4E"/><stop offset="0.5" stop-color="#156F21"/><stop offset="1" stop-color="#0E6519"/></linearGradient><linearGradient x1="640" y1="328" x2="640" y2="382" gradientUnits="userSpaceOnUse" spreadMethod="reflect" id="fill10"><stop offset="0" stop-color="#4A7E4E"/><stop offset="0.5" stop-color="#156F21"/><stop offset="1" stop-color="#0E6519"/></linearGradient><linearGradient x1="716" y1="329" x2="716" y2="383" gradientUnits="userSpaceOnUse" spreadMethod="reflect" id="fill11"><stop offset="0" stop-color="#4A7E4E"/><stop offset="0.5" stop-color="#156F21"/><stop offset="1" stop-color="#0E6519"/></linearGradient><linearGradient x1="564" y1="400" x2="564" y2="453" gradientUnits="userSpaceOnUse" spreadMethod="reflect" id="fill12"><stop offset="0" stop-color="#4A7E4E"/><stop offset="0.5" stop-color="#156F21"/><stop offset="1" stop-color="#0E6519"/></linearGradient><linearGradient x1="640" y1="399" x2="640" y2="453" gradientUnits="userSpaceOnUse" spreadMethod="reflect" id="fill13"><stop offset="0" stop-color="#4A7E4E"/><stop offset="0.5" stop-color="#156F21"/><stop offset="1" stop-color="#0E6519"/></linearGradient><linearGradient x1="716" y1="400" x2="716" y2="454" gradientUnits="userSpaceOnUse" spreadMethod="reflect" id="fill14"><stop offset="0" stop-color="#4A7E4E"/><stop offset="0.5" stop-color="#156F21"/><stop offset="1" stop-color="#0E6519"/></linearGradient><linearGradient x1="564" y1="472" x2="564" y2="525" gradientUnits="userSpaceOnUse" spreadMethod="reflect" id="fill15"><stop offset="0" stop-color="#4A7E4E"/><stop offset="0.5" stop-color="#156F21"/><stop offset="1" stop-color="#0E6519"/></linearGradient><linearGradient x1="640" y1="471" x2="640" y2="525" gradientUnits="userSpaceOnUse" spreadMethod="reflect" id="fill16"><stop offset="0" stop-color="#4A7E4E"/><stop offset="0.5" stop-color="#156F21"/><stop offset="1" stop-color="#0E6519"/></linearGradient><linearGradient x1="716" y1="472" x2="716" y2="526" gradientUnits="userSpaceOnUse" spreadMethod="reflect" id="fill17"><stop offset="0" stop-color="#4A7E4E"/><stop offset="0.5" stop-color="#156F21"/><stop offset="1" stop-color="#0E6519"/></linearGradient></defs><g><rect x="0" y="0" width="1280" height="720" fill="#FFFFFF" fill-opacity="0"/><path d="M638.5 112C687.589 112 729.707 136.199 747.698 170.686L751 178 526 178 529.301 170.686C547.293 136.199 589.411 112 638.5 112Z" stroke="#052909" stroke-width="2" stroke-miterlimit="8" fill="#196B24" fill-rule="evenodd"/><path d="M480 248.335C480 218.879 503.879 195 533.335 195L746.665 195C776.121 195 800 218.879 800 248.335L800 554.665C800 584.121 776.121 608 746.665 608L533.335 608C503.879 608 480 584.121 480 554.665Z" stroke="#052909" stroke-width="2" stroke-miterlimit="8" fill="#196B24" fill-rule="evenodd"/><path d="M527.5 242.5C527.5 238.082 531.082 234.5 535.5 234.5L742.5 234.5C746.918 234.5 750.5 238.082 750.5 242.5L750.5 274.5C750.5 278.918 746.918 282.5 742.5 282.5L535.5 282.5C531.082 282.5 527.5 278.918 527.5 274.5Z" stroke="#FFFFFF" stroke-width="2.66667" stroke-miterlimit="8" fill="#4EA72E" fill-rule="evenodd"/><g filter="url(#fx0)" transform="translate(527 324)"><g><path d="M7 15.8335C7 10.9549 10.9549 7 15.8335 7L58.1665 7C63.0451 7 67 10.9549 67 15.8335L67 51.1665C67 56.0451 63.0451 60 58.1665 60L15.8335 60C10.9549 60 7 56.0451 7 51.1665Z" fill="#FF0000" fill-rule="evenodd"/></g></g><path d="M534 337.834C534 332.955 537.955 329 542.834 329L585.166 329C590.045 329 594 332.955 594 337.834L594 373.166C594 378.045 590.045 382 585.166 382L542.834 382C537.955 382 534 378.045 534 373.166Z" fill="url(#fill9)" fill-rule="evenodd"/><g filter="url(#fx1)" transform="translate(603 323)"><g><path d="M7 16.0002C7 11.0295 11.0295 7 16.0002 7L57.9998 7C62.9705 7 67 11.0295 67 16.0002L67 51.9998C67 56.9705 62.9705 61 57.9998 61L16.0002 61C11.0295 61 7 56.9705 7 51.9998Z" fill="#FF0000" fill-rule="evenodd"/></g></g><path d="M610 337C610 332.03 614.03 328 619 328L661 328C665.97 328 670 332.03 670 337L670 373C670 377.97 665.97 382 661 382L619 382C614.03 382 610 377.97 610 373Z" fill="url(#fill10)" fill-rule="evenodd"/><g filter="url(#fx2)" transform="translate(679 324)"><g><path d="M7 16.0002C7 11.0295 11.0295 7 16.0002 7L57.9998 7C62.9705 7 67 11.0295 67 16.0002L67 51.9998C67 56.9705 62.9705 61 57.9998 61L16.0002 61C11.0295 61 7 56.9705 7 51.9998Z" fill="#FF0000" fill-rule="evenodd"/></g></g><path d="M686 338C686 333.03 690.03 329 695 329L737 329C741.97 329 746 333.03 746 338L746 374C746 378.97 741.97 383 737 383L695 383C690.03 383 686 378.97 686 374Z" fill="url(#fill11)" fill-rule="evenodd"/><g filter="url(#fx3)" transform="translate(527 395)"><g><path d="M7 15.8335C7 10.9549 10.9549 7 15.8335 7L58.1665 7C63.0451 7 67 10.9549 67 15.8335L67 51.1665C67 56.0451 63.0451 60 58.1665 60L15.8335 60C10.9549 60 7 56.0451 7 51.1665Z" fill="#FF0000" fill-rule="evenodd"/></g></g><path d="M534 408.834C534 403.955 537.955 400 542.834 400L585.166 400C590.045 400 594 403.955 594 408.834L594 444.166C594 449.045 590.045 453 585.166 453L542.834 453C537.955 453 534 449.045 534 444.166Z" fill="url(#fill12)" fill-rule="evenodd"/><g filter="url(#fx4)" transform="translate(603 394)"><g><path d="M7 16.0002C7 11.0295 11.0295 7 16.0002 7L57.9998 7C62.9705 7 67 11.0295 67 16.0002L67 51.9998C67 56.9705 62.9705 61 57.9998 61L16.0002 61C11.0295 61 7 56.9705 7 51.9998Z" fill="#FF0000" fill-rule="evenodd"/></g></g><path d="M610 408C610 403.03 614.03 399 619 399L661 399C665.97 399 670 403.03 670 408L670 444C670 448.97 665.97 453 661 453L619 453C614.03 453 610 448.97 610 444Z" fill="url(#fill13)" fill-rule="evenodd"/><g filter="url(#fx5)" transform="translate(679 395)"><g><path d="M7 16.0002C7 11.0295 11.0295 7 16.0002 7L57.9998 7C62.9705 7 67 11.0295 67 16.0002L67 51.9998C67 56.9705 62.9705 61 57.9998 61L16.0002 61C11.0295 61 7 56.9705 7 51.9998Z" fill="#FF0000" fill-rule="evenodd"/></g></g><path d="M686 409C686 404.03 690.03 400 695 400L737 400C741.97 400 746 404.03 746 409L746 445C746 449.97 741.97 454 737 454L695 454C690.03 454 686 449.97 686 445Z" fill="url(#fill14)" fill-rule="evenodd"/><g filter="url(#fx6)" transform="translate(527 467)"><g><path d="M7 15.8335C7 10.9549 10.9549 7 15.8335 7L58.1665 7C63.0451 7 67 10.9549 67 15.8335L67 51.1665C67 56.0451 63.0451 60 58.1665 60L15.8335 60C10.9549 60 7 56.0451 7 51.1665Z" fill="#FF0000" fill-rule="evenodd"/></g></g><path d="M534 480.834C534 475.955 537.955 472 542.834 472L585.166 472C590.045 472 594 475.955 594 480.834L594 516.166C594 521.045 590.045 525 585.166 525L542.834 525C537.955 525 534 521.045 534 516.166Z" fill="url(#fill15)" fill-rule="evenodd"/><g filter="url(#fx7)" transform="translate(603 466)"><g><path d="M7 16.0002C7 11.0295 11.0295 7 16.0002 7L57.9998 7C62.9705 7 67 11.0295 67 16.0002L67 51.9998C67 56.9705 62.9705 61 57.9998 61L16.0002 61C11.0295 61 7 56.9705 7 51.9998Z" fill="#FF0000" fill-rule="evenodd"/></g></g><path d="M610 480C610 475.03 614.03 471 619 471L661 471C665.97 471 670 475.03 670 480L670 516C670 520.97 665.97 525 661 525L619 525C614.03 525 610 520.97 610 516Z" fill="url(#fill16)" fill-rule="evenodd"/><g filter="url(#fx8)" transform="translate(679 467)"><g><path d="M7 16.0002C7 11.0295 11.0295 7 16.0002 7L57.9998 7C62.9705 7 67 11.0295 67 16.0002L67 51.9998C67 56.9705 62.9705 61 57.9998 61L16.0002 61C11.0295 61 7 56.9705 7 51.9998Z" fill="#FF0000" fill-rule="evenodd"/></g></g><path d="M686 481C686 476.03 690.03 472 695 472L737 472C741.97 472 746 476.03 746 481L746 517C746 521.97 741.97 526 737 526L695 526C690.03 526 686 521.97 686 517Z" fill="url(#fill17)" fill-rule="evenodd"/></g></svg>